<svg width="1200" height="900"><rect x = "300" y = "180" width = "30" height = "30" style = " fill:rgb(255,0,255) " /> 
<rect x = "300" y = "210" width = "30" height = "30" style = " fill:rgb(255,0,255) " /> 
<rect x = "300" y = "240" width = "30" height = "30" style = " fill:rgb(255,0,255) " /> 
<rect x = "300" y = "270" width = "30" height = "30" style = " fill:rgb(255,0,255) " /> 
<rect x = "300" y = "300" width = "30" height = "30" style = " fill:rgb(255,0,255) " /> 
<rect x = "330" y = "180" width = "30" height = "30" style = " fill:rgb(255,0,255) " /> 
<rect x = "330" y = "300" width = "30" height = "30" style = " fill:rgb(255,0,255) " /> 
<rect x = "330" y = "330" width = "30" height = "30" style = " fill:rgb(255,0,255) " /> 
<rect x = "360" y = "180" width = "30" height = "30" style = " fill:rgb(255,0,255) " /> 
<rect x = "360" y = "210" width = "30" height = "30" style = " fill:rgb(255,0,255) " /> 
<rect x = "360" y = "330" width = "30" height = "30" style = " fill:rgb(255,0,255) " /> 
<rect x = "360" y = "360" width = "30" height = "30" style = " fill:rgb(255,0,255) " /> 
<rect x = "360" y = "390" width = "30" height = "30" style = " fill:rgb(255,0,255) " /> 
<rect x = "360" y = "420" width = "30" height = "30" style = " fill:rgb(255,0,255) " /> 
<rect x = "360" y = "450" width = "30" height = "30" style = " fill:rgb(255,0,255) " /> 
<rect x = "360" y = "480" width = "30" height = "30" style = " fill:rgb(255,0,255) " /> 
<rect x = "360" y = "510" width = "30" height = "30" style = " fill:rgb(255,0,255) " /> 
<rect x = "360" y = "540" width = "30" height = "30" style = " fill:rgb(255,0,255) " /> 
<rect x = "360" y = "570" width = "30" height = "30" style = " fill:rgb(255,0,255) " /> 
<rect x = "360" y = "600" width = "30" height = "30" style = " fill:rgb(255,0,255) " /> 
<rect x = "360" y = "630" width = "30" height = "30" style = " fill:rgb(255,0,255) " /> 
<rect x = "360" y = "660" width = "30" height = "30" style = " fill:rgb(255,0,255) " /> 
<rect x = "390" y = "210" width = "30" height = "30" style = " fill:rgb(255,0,255) " /> 
<rect x = "390" y = "240" width = "30" height = "30" style = " fill:rgb(255,0,255) " /> 
<rect x = "390" y = "270" width = "30" height = "30" style = " fill:rgb(255,0,255) " /> 
<rect x = "390" y = "300" width = "30" height = "30" style = " fill:rgb(255,0,255) " /> 
<rect x = "390" y = "330" width = "30" height = "30" style = " fill:rgb(255,0,255) " /> 
<rect x = "390" y = "570" width = "30" height = "30" style = " fill:rgb(255,0,255) " /> 
<rect x = "390" y = "660" width = "30" height = "30" style = " fill:rgb(255,0,255) " /> 
<rect x = "390" y = "690" width = "30" height = "30" style = " fill:rgb(255,0,255) " /> 
<rect x = "420" y = "240" width = "30" height = "30" style = " fill:rgb(255,0,255) " /> 
<rect x = "420" y = "270" width = "30" height = "30" style = " fill:rgb(255,0,255) " /> 
<rect x = "420" y = "570" width = "30" height = "30" style = " fill:rgb(255,0,255) " /> 
<rect x = "420" y = "690" width = "30" height = "30" style = " fill:rgb(255,0,255) " /> 
<rect x = "420" y = "720" width = "30" height = "30" style = " fill:rgb(255,0,255) " /> 
<rect x = "450" y = "570" width = "30" height = "30" style = " fill:rgb(255,0,255) " /> 
<rect x = "450" y = "660" width = "30" height = "30" style = " fill:rgb(255,0,255) " /> 
<rect x = "450" y = "690" width = "30" height = "30" style = " fill:rgb(255,0,255) " /> 
<rect x = "450" y = "720" width = "30" height = "30" style = " fill:rgb(255,0,255) " /> 
<rect x = "480" y = "180" width = "30" height = "30" style = " fill:rgb(255,0,255) " /> 
<rect x = "480" y = "210" width = "30" height = "30" style = " fill:rgb(255,0,255) " /> 
<rect x = "480" y = "240" width = "30" height = "30" style = " fill:rgb(255,0,255) " /> 
<rect x = "480" y = "270" width = "30" height = "30" style = " fill:rgb(255,0,255) " /> 
<rect x = "480" y = "300" width = "30" height = "30" style = " fill:rgb(255,0,255) " /> 
<rect x = "480" y = "330" width = "30" height = "30" style = " fill:rgb(255,0,255) " /> 
<rect x = "480" y = "360" width = "30" height = "30" style = " fill:rgb(255,0,255) " /> 
<rect x = "480" y = "570" width = "30" height = "30" style = " fill:rgb(255,0,255) " /> 
<rect x = "480" y = "690" width = "30" height = "30" style = " fill:rgb(255,0,255) " /> 
<rect x = "480" y = "720" width = "30" height = "30" style = " fill:rgb(255,0,255) " /> 
<rect x = "510" y = "180" width = "30" height = "30" style = " fill:rgb(255,0,255) " /> 
<rect x = "510" y = "360" width = "30" height = "30" style = " fill:rgb(255,0,255) " /> 
<rect x = "510" y = "570" width = "30" height = "30" style = " fill:rgb(255,0,255) " /> 
<rect x = "510" y = "600" width = "30" height = "30" style = " fill:rgb(255,0,255) " /> 
<rect x = "510" y = "630" width = "30" height = "30" style = " fill:rgb(255,0,255) " /> 
<rect x = "510" y = "660" width = "30" height = "30" style = " fill:rgb(255,0,255) " /> 
<rect x = "510" y = "690" width = "30" height = "30" style = " fill:rgb(255,0,255) " /> 
<rect x = "540" y = "180" width = "30" height = "30" style = " fill:rgb(255,0,255) " /> 
<rect x = "540" y = "360" width = "30" height = "30" style = " fill:rgb(255,0,255) " /> 
<rect x = "540" y = "390" width = "30" height = "30" style = " fill:rgb(255,0,255) " /> 
<rect x = "540" y = "420" width = "30" height = "30" style = " fill:rgb(255,0,255) " /> 
<rect x = "540" y = "450" width = "30" height = "30" style = " fill:rgb(255,0,255) " /> 
<rect x = "540" y = "480" width = "30" height = "30" style = " fill:rgb(255,0,255) " /> 
<rect x = "540" y = "510" width = "30" height = "30" style = " fill:rgb(255,0,255) " /> 
<rect x = "540" y = "540" width = "30" height = "30" style = " fill:rgb(255,0,255) " /> 
<rect x = "540" y = "570" width = "30" height = "30" style = " fill:rgb(255,0,255) " /> 
<rect x = "540" y = "600" width = "30" height = "30" style = " fill:rgb(255,0,255) " /> 
<rect x = "570" y = "180" width = "30" height = "30" style = " fill:rgb(255,0,255) " /> 
<rect x = "570" y = "360" width = "30" height = "30" style = " fill:rgb(255,0,255) " /> 
<rect x = "600" y = "180" width = "30" height = "30" style = " fill:rgb(255,0,255) " /> 
<rect x = "600" y = "210" width = "30" height = "30" style = " fill:rgb(255,0,255) " /> 
<rect x = "600" y = "300" width = "30" height = "30" style = " fill:rgb(255,0,255) " /> 
<rect x = "600" y = "330" width = "30" height = "30" style = " fill:rgb(255,0,255) " /> 
<rect x = "600" y = "360" width = "30" height = "30" style = " fill:rgb(255,0,255) " /> 
<rect x = "630" y = "210" width = "30" height = "30" style = " fill:rgb(255,0,255) " /> 
<rect x = "630" y = "240" width = "30" height = "30" style = " fill:rgb(255,0,255) " /> 
<rect x = "630" y = "270" width = "30" height = "30" style = " fill:rgb(255,0,255) " /> 
<rect x = "630" y = "300" width = "30" height = "30" style = " fill:rgb(255,0,255) " /> 
</svg>