<svg width="1200" height="900"><rect x = "150" y = "375" width = "75" height = "75" style = " fill:rgb(255,0,0) " /> 
<rect x = "150" y = "450" width = "75" height = "75" style = " fill:rgb(255,0,0) " /> 
<rect x = "225" y = "300" width = "75" height = "75" style = " fill:rgb(255,0,0) " /> 
<rect x = "225" y = "375" width = "75" height = "75" style = " fill:rgb(255,0,0) " /> 
<rect x = "225" y = "450" width = "75" height = "75" style = " fill:rgb(255,0,0) " /> 
<rect x = "225" y = "600" width = "75" height = "75" style = " fill:rgb(255,255,255) " /> 
<rect x = "300" y = "225" width = "75" height = "75" style = " fill:rgb(255,0,0) " /> 
<rect x = "300" y = "300" width = "75" height = "75" style = " fill:rgb(255,0,0) " /> 
<rect x = "300" y = "375" width = "75" height = "75" style = " fill:rgb(255,255,255) " /> 
<rect x = "300" y = "450" width = "75" height = "75" style = " fill:rgb(255,0,0) " /> 
<rect x = "300" y = "525" width = "75" height = "75" style = " fill:rgb(0,0,0) " /> 
<rect x = "300" y = "600" width = "75" height = "75" style = " fill:rgb(255,255,255) " /> 
<rect x = "300" y = "675" width = "75" height = "75" style = " fill:rgb(255,255,255) " /> 
<rect x = "375" y = "225" width = "75" height = "75" style = " fill:rgb(255,255,255) " /> 
<rect x = "375" y = "300" width = "75" height = "75" style = " fill:rgb(255,0,0) " /> 
<rect x = "375" y = "375" width = "75" height = "75" style = " fill:rgb(255,0,0) " /> 
<rect x = "375" y = "450" width = "75" height = "75" style = " fill:rgb(255,0,0) " /> 
<rect x = "375" y = "525" width = "75" height = "75" style = " fill:rgb(255,255,255) " /> 
<rect x = "375" y = "600" width = "75" height = "75" style = " fill:rgb(255,255,255) " /> 
<rect x = "375" y = "675" width = "75" height = "75" style = " fill:rgb(255,255,255) " /> 
<rect x = "375" y = "750" width = "75" height = "75" style = " fill:rgb(255,255,255) " /> 
<rect x = "450" y = "225" width = "75" height = "75" style = " fill:rgb(255,0,0) " /> 
<rect x = "450" y = "300" width = "75" height = "75" style = " fill:rgb(255,0,0) " /> 
<rect x = "450" y = "375" width = "75" height = "75" style = " fill:rgb(255,0,0) " /> 
<rect x = "450" y = "450" width = "75" height = "75" style = " fill:rgb(255,0,0) " /> 
<rect x = "450" y = "525" width = "75" height = "75" style = " fill:rgb(255,255,255) " /> 
<rect x = "450" y = "600" width = "75" height = "75" style = " fill:rgb(255,255,255) " /> 
<rect x = "450" y = "675" width = "75" height = "75" style = " fill:rgb(255,255,255) " /> 
<rect x = "450" y = "750" width = "75" height = "75" style = " fill:rgb(255,255,255) " /> 
<rect x = "525" y = "225" width = "75" height = "75" style = " fill:rgb(255,0,0) " /> 
<rect x = "525" y = "300" width = "75" height = "75" style = " fill:rgb(255,255,255) " /> 
<rect x = "525" y = "375" width = "75" height = "75" style = " fill:rgb(255,0,0) " /> 
<rect x = "525" y = "450" width = "75" height = "75" style = " fill:rgb(255,0,0) " /> 
<rect x = "525" y = "525" width = "75" height = "75" style = " fill:rgb(0,0,0) " /> 
<rect x = "525" y = "600" width = "75" height = "75" style = " fill:rgb(255,255,255) " /> 
<rect x = "525" y = "675" width = "75" height = "75" style = " fill:rgb(255,255,255) " /> 
<rect x = "600" y = "300" width = "75" height = "75" style = " fill:rgb(255,0,0) " /> 
<rect x = "600" y = "375" width = "75" height = "75" style = " fill:rgb(255,0,0) " /> 
<rect x = "600" y = "450" width = "75" height = "75" style = " fill:rgb(255,0,0) " /> 
<rect x = "600" y = "600" width = "75" height = "75" style = " fill:rgb(255,255,255) " /> 
<rect x = "675" y = "375" width = "75" height = "75" style = " fill:rgb(255,0,0) " /> 
<rect x = "675" y = "450" width = "75" height = "75" style = " fill:rgb(255,255,255) " /> 
</svg>