<svg width="1200" height="900"><rect x = "569" y = "340" width = "1" height = "1" style = " fill:rgb(0,0,255) " /> 
<rect x = "569" y = "341" width = "1" height = "1" style = " fill:rgb(0,0,255) " /> 
<rect x = "569" y = "342" width = "1" height = "1" style = " fill:rgb(0,0,255) " /> 
<rect x = "569" y = "344" width = "1" height = "1" style = " fill:rgb(0,0,255) " /> 
<rect x = "569" y = "346" width = "1" height = "1" style = " fill:rgb(0,0,255) " /> 
<rect x = "569" y = "349" width = "1" height = "1" style = " fill:rgb(0,0,255) " /> 
<rect x = "569" y = "351" width = "1" height = "1" style = " fill:rgb(0,0,255) " /> 
<rect x = "569" y = "352" width = "1" height = "1" style = " fill:rgb(0,0,255) " /> 
<rect x = "569" y = "353" width = "1" height = "1" style = " fill:rgb(0,0,255) " /> 
<rect x = "569" y = "355" width = "1" height = "1" style = " fill:rgb(0,0,255) " /> 
<rect x = "569" y = "357" width = "1" height = "1" style = " fill:rgb(0,0,255) " /> 
<rect x = "569" y = "358" width = "1" height = "1" style = " fill:rgb(0,0,255) " /> 
<rect x = "569" y = "360" width = "1" height = "1" style = " fill:rgb(0,0,255) " /> 
<rect x = "569" y = "361" width = "1" height = "1" style = " fill:rgb(0,0,255) " /> 
<rect x = "569" y = "364" width = "1" height = "1" style = " fill:rgb(0,0,255) " /> 
<rect x = "569" y = "365" width = "1" height = "1" style = " fill:rgb(0,0,255) " /> 
<rect x = "569" y = "367" width = "1" height = "1" style = " fill:rgb(0,0,255) " /> 
<rect x = "570" y = "336" width = "1" height = "1" style = " fill:rgb(0,0,255) " /> 
<rect x = "570" y = "337" width = "1" height = "1" style = " fill:rgb(0,0,255) " /> 
<rect x = "570" y = "338" width = "1" height = "1" style = " fill:rgb(0,0,255) " /> 
<rect x = "570" y = "369" width = "1" height = "1" style = " fill:rgb(0,0,255) " /> 
<rect x = "570" y = "371" width = "1" height = "1" style = " fill:rgb(0,0,255) " /> 
<rect x = "571" y = "332" width = "1" height = "1" style = " fill:rgb(0,0,255) " /> 
<rect x = "571" y = "333" width = "1" height = "1" style = " fill:rgb(0,0,255) " /> 
<rect x = "571" y = "334" width = "1" height = "1" style = " fill:rgb(0,0,255) " /> 
<rect x = "571" y = "374" width = "1" height = "1" style = " fill:rgb(0,0,255) " /> 
<rect x = "571" y = "375" width = "1" height = "1" style = " fill:rgb(0,0,255) " /> 
<rect x = "571" y = "378" width = "1" height = "1" style = " fill:rgb(0,0,255) " /> 
<rect x = "572" y = "330" width = "1" height = "1" style = " fill:rgb(0,0,255) " /> 
<rect x = "572" y = "331" width = "1" height = "1" style = " fill:rgb(0,0,255) " /> 
<rect x = "572" y = "379" width = "1" height = "1" style = " fill:rgb(0,0,255) " /> 
<rect x = "573" y = "328" width = "1" height = "1" style = " fill:rgb(0,0,255) " /> 
<rect x = "573" y = "329" width = "1" height = "1" style = " fill:rgb(0,0,255) " /> 
<rect x = "573" y = "382" width = "1" height = "1" style = " fill:rgb(0,0,255) " /> 
<rect x = "573" y = "383" width = "1" height = "1" style = " fill:rgb(0,0,255) " /> 
<rect x = "574" y = "324" width = "1" height = "1" style = " fill:rgb(0,0,255) " /> 
<rect x = "574" y = "325" width = "1" height = "1" style = " fill:rgb(0,0,255) " /> 
<rect x = "574" y = "326" width = "1" height = "1" style = " fill:rgb(0,0,255) " /> 
<rect x = "574" y = "327" width = "1" height = "1" style = " fill:rgb(0,0,255) " /> 
<rect x = "574" y = "386" width = "1" height = "1" style = " fill:rgb(0,0,255) " /> 
<rect x = "574" y = "387" width = "1" height = "1" style = " fill:rgb(0,0,255) " /> 
<rect x = "575" y = "324" width = "1" height = "1" style = " fill:rgb(0,0,255) " /> 
<rect x = "575" y = "390" width = "1" height = "1" style = " fill:rgb(0,0,255) " /> 
<rect x = "575" y = "392" width = "1" height = "1" style = " fill:rgb(0,0,255) " /> 
<rect x = "576" y = "322" width = "1" height = "1" style = " fill:rgb(0,0,255) " /> 
<rect x = "576" y = "323" width = "1" height = "1" style = " fill:rgb(0,0,255) " /> 
<rect x = "577" y = "320" width = "1" height = "1" style = " fill:rgb(0,0,255) " /> 
<rect x = "577" y = "321" width = "1" height = "1" style = " fill:rgb(0,0,255) " /> 
<rect x = "577" y = "396" width = "1" height = "1" style = " fill:rgb(0,0,255) " /> 
<rect x = "578" y = "399" width = "1" height = "1" style = " fill:rgb(0,0,255) " /> 
<rect x = "579" y = "319" width = "1" height = "1" style = " fill:rgb(0,0,255) " /> 
<rect x = "579" y = "320" width = "1" height = "1" style = " fill:rgb(0,0,255) " /> 
<rect x = "579" y = "401" width = "1" height = "1" style = " fill:rgb(0,0,255) " /> 
<rect x = "579" y = "405" width = "1" height = "1" style = " fill:rgb(0,0,255) " /> 
<rect x = "580" y = "318" width = "1" height = "1" style = " fill:rgb(0,0,255) " /> 
<rect x = "580" y = "319" width = "1" height = "1" style = " fill:rgb(0,0,255) " /> 
<rect x = "580" y = "407" width = "1" height = "1" style = " fill:rgb(0,0,255) " /> 
<rect x = "581" y = "317" width = "1" height = "1" style = " fill:rgb(0,0,255) " /> 
<rect x = "581" y = "318" width = "1" height = "1" style = " fill:rgb(0,0,255) " /> 
<rect x = "582" y = "317" width = "1" height = "1" style = " fill:rgb(0,0,255) " /> 
<rect x = "582" y = "409" width = "1" height = "1" style = " fill:rgb(0,0,255) " /> 
<rect x = "582" y = "412" width = "1" height = "1" style = " fill:rgb(0,0,255) " /> 
<rect x = "583" y = "317" width = "1" height = "1" style = " fill:rgb(0,0,255) " /> 
<rect x = "583" y = "414" width = "1" height = "1" style = " fill:rgb(0,0,255) " /> 
<rect x = "584" y = "316" width = "1" height = "1" style = " fill:rgb(0,0,255) " /> 
<rect x = "584" y = "417" width = "1" height = "1" style = " fill:rgb(0,0,255) " /> 
<rect x = "585" y = "315" width = "1" height = "1" style = " fill:rgb(0,0,255) " /> 
<rect x = "585" y = "419" width = "1" height = "1" style = " fill:rgb(0,0,255) " /> 
<rect x = "586" y = "314" width = "1" height = "1" style = " fill:rgb(0,0,255) " /> 
<rect x = "586" y = "422" width = "1" height = "1" style = " fill:rgb(0,0,255) " /> 
<rect x = "588" y = "314" width = "1" height = "1" style = " fill:rgb(0,0,255) " /> 
<rect x = "588" y = "424" width = "1" height = "1" style = " fill:rgb(0,0,255) " /> 
<rect x = "589" y = "427" width = "1" height = "1" style = " fill:rgb(0,0,255) " /> 
<rect x = "590" y = "313" width = "1" height = "1" style = " fill:rgb(0,0,255) " /> 
<rect x = "590" y = "430" width = "1" height = "1" style = " fill:rgb(0,0,255) " /> 
<rect x = "591" y = "432" width = "1" height = "1" style = " fill:rgb(0,0,255) " /> 
<rect x = "592" y = "312" width = "1" height = "1" style = " fill:rgb(0,0,255) " /> 
<rect x = "592" y = "435" width = "1" height = "1" style = " fill:rgb(0,0,255) " /> 
<rect x = "593" y = "312" width = "1" height = "1" style = " fill:rgb(0,0,255) " /> 
<rect x = "594" y = "437" width = "1" height = "1" style = " fill:rgb(0,0,255) " /> 
<rect x = "595" y = "440" width = "1" height = "1" style = " fill:rgb(0,0,255) " /> 
<rect x = "596" y = "311" width = "1" height = "1" style = " fill:rgb(0,0,255) " /> 
<rect x = "596" y = "443" width = "1" height = "1" style = " fill:rgb(0,0,255) " /> 
<rect x = "597" y = "310" width = "1" height = "1" style = " fill:rgb(0,0,255) " /> 
<rect x = "598" y = "310" width = "1" height = "1" style = " fill:rgb(0,0,255) " /> 
<rect x = "598" y = "445" width = "1" height = "1" style = " fill:rgb(0,0,255) " /> 
<rect x = "599" y = "447" width = "1" height = "1" style = " fill:rgb(0,0,255) " /> 
<rect x = "600" y = "309" width = "1" height = "1" style = " fill:rgb(0,0,255) " /> 
<rect x = "600" y = "449" width = "1" height = "1" style = " fill:rgb(0,0,255) " /> 
<rect x = "601" y = "309" width = "1" height = "1" style = " fill:rgb(0,0,255) " /> 
<rect x = "602" y = "451" width = "1" height = "1" style = " fill:rgb(0,0,255) " /> 
<rect x = "603" y = "307" width = "1" height = "1" style = " fill:rgb(0,0,255) " /> 
<rect x = "604" y = "455" width = "1" height = "1" style = " fill:rgb(0,0,255) " /> 
<rect x = "605" y = "306" width = "1" height = "1" style = " fill:rgb(0,0,255) " /> 
<rect x = "605" y = "457" width = "1" height = "1" style = " fill:rgb(0,0,255) " /> 
<rect x = "607" y = "306" width = "1" height = "1" style = " fill:rgb(0,0,255) " /> 
<rect x = "607" y = "459" width = "1" height = "1" style = " fill:rgb(0,0,255) " /> 
<rect x = "608" y = "306" width = "1" height = "1" style = " fill:rgb(0,0,255) " /> 
<rect x = "608" y = "461" width = "1" height = "1" style = " fill:rgb(0,0,255) " /> 
<rect x = "609" y = "463" width = "1" height = "1" style = " fill:rgb(0,0,255) " /> 
<rect x = "610" y = "305" width = "1" height = "1" style = " fill:rgb(0,0,255) " /> 
<rect x = "612" y = "305" width = "1" height = "1" style = " fill:rgb(0,0,255) " /> 
<rect x = "612" y = "466" width = "1" height = "1" style = " fill:rgb(0,0,255) " /> 
<rect x = "613" y = "468" width = "1" height = "1" style = " fill:rgb(0,0,255) " /> 
<rect x = "614" y = "304" width = "1" height = "1" style = " fill:rgb(0,0,255) " /> 
<rect x = "615" y = "470" width = "1" height = "1" style = " fill:rgb(0,0,255) " /> 
<rect x = "616" y = "304" width = "1" height = "1" style = " fill:rgb(0,0,255) " /> 
<rect x = "617" y = "472" width = "1" height = "1" style = " fill:rgb(0,0,255) " /> 
<rect x = "618" y = "303" width = "1" height = "1" style = " fill:rgb(0,0,255) " /> 
<rect x = "619" y = "474" width = "1" height = "1" style = " fill:rgb(0,0,255) " /> 
<rect x = "620" y = "303" width = "1" height = "1" style = " fill:rgb(0,0,255) " /> 
<rect x = "621" y = "476" width = "1" height = "1" style = " fill:rgb(0,0,255) " /> 
<rect x = "622" y = "477" width = "1" height = "1" style = " fill:rgb(0,0,255) " /> 
<rect x = "623" y = "302" width = "1" height = "1" style = " fill:rgb(0,0,255) " /> 
<rect x = "624" y = "301" width = "1" height = "1" style = " fill:rgb(0,0,255) " /> 
<rect x = "624" y = "479" width = "1" height = "1" style = " fill:rgb(0,0,255) " /> 
<rect x = "626" y = "301" width = "1" height = "1" style = " fill:rgb(0,0,255) " /> 
<rect x = "626" y = "481" width = "1" height = "1" style = " fill:rgb(0,0,255) " /> 
<rect x = "627" y = "301" width = "1" height = "1" style = " fill:rgb(0,0,255) " /> 
<rect x = "627" y = "482" width = "1" height = "1" style = " fill:rgb(0,0,255) " /> 
<rect x = "630" y = "300" width = "1" height = "1" style = " fill:rgb(0,0,255) " /> 
<rect x = "630" y = "485" width = "1" height = "1" style = " fill:rgb(0,0,255) " /> 
<rect x = "630" y = "486" width = "1" height = "1" style = " fill:rgb(0,0,255) " /> 
<rect x = "632" y = "300" width = "1" height = "1" style = " fill:rgb(0,0,255) " /> 
<rect x = "633" y = "299" width = "1" height = "1" style = " fill:rgb(0,0,255) " /> 
<rect x = "633" y = "488" width = "1" height = "1" style = " fill:rgb(0,0,255) " /> 
<rect x = "635" y = "299" width = "1" height = "1" style = " fill:rgb(0,0,255) " /> 
<rect x = "635" y = "490" width = "1" height = "1" style = " fill:rgb(0,0,255) " /> 
<rect x = "636" y = "490" width = "1" height = "1" style = " fill:rgb(0,0,255) " /> 
<rect x = "637" y = "299" width = "1" height = "1" style = " fill:rgb(0,0,255) " /> 
<rect x = "638" y = "493" width = "1" height = "1" style = " fill:rgb(0,0,255) " /> 
<rect x = "640" y = "298" width = "1" height = "1" style = " fill:rgb(0,0,255) " /> 
<rect x = "640" y = "493" width = "1" height = "1" style = " fill:rgb(0,0,255) " /> 
<rect x = "641" y = "297" width = "1" height = "1" style = " fill:rgb(0,0,255) " /> 
<rect x = "641" y = "495" width = "1" height = "1" style = " fill:rgb(0,0,255) " /> 
<rect x = "643" y = "297" width = "1" height = "1" style = " fill:rgb(0,0,255) " /> 
<rect x = "643" y = "496" width = "1" height = "1" style = " fill:rgb(0,0,255) " /> 
<rect x = "645" y = "297" width = "1" height = "1" style = " fill:rgb(0,0,255) " /> 
<rect x = "645" y = "497" width = "1" height = "1" style = " fill:rgb(0,0,255) " /> 
<rect x = "646" y = "297" width = "1" height = "1" style = " fill:rgb(0,0,255) " /> 
<rect x = "646" y = "498" width = "1" height = "1" style = " fill:rgb(0,0,255) " /> 
<rect x = "648" y = "297" width = "1" height = "1" style = " fill:rgb(0,0,255) " /> 
<rect x = "648" y = "499" width = "1" height = "1" style = " fill:rgb(0,0,255) " /> 
<rect x = "649" y = "296" width = "1" height = "1" style = " fill:rgb(0,0,255) " /> 
<rect x = "649" y = "500" width = "1" height = "1" style = " fill:rgb(0,0,255) " /> 
<rect x = "650" y = "500" width = "1" height = "1" style = " fill:rgb(0,0,255) " /> 
<rect x = "651" y = "295" width = "1" height = "1" style = " fill:rgb(0,0,255) " /> 
<rect x = "652" y = "501" width = "1" height = "1" style = " fill:rgb(0,0,255) " /> 
<rect x = "653" y = "295" width = "1" height = "1" style = " fill:rgb(0,0,255) " /> 
<rect x = "653" y = "502" width = "1" height = "1" style = " fill:rgb(0,0,255) " /> 
<rect x = "654" y = "502" width = "1" height = "1" style = " fill:rgb(0,0,255) " /> 
<rect x = "655" y = "504" width = "1" height = "1" style = " fill:rgb(0,0,255) " /> 
<rect x = "656" y = "294" width = "1" height = "1" style = " fill:rgb(0,0,255) " /> 
<rect x = "656" y = "504" width = "1" height = "1" style = " fill:rgb(0,0,255) " /> 
<rect x = "657" y = "294" width = "1" height = "1" style = " fill:rgb(0,0,255) " /> 
<rect x = "657" y = "504" width = "1" height = "1" style = " fill:rgb(0,0,255) " /> 
<rect x = "658" y = "505" width = "1" height = "1" style = " fill:rgb(0,0,255) " /> 
<rect x = "659" y = "294" width = "1" height = "1" style = " fill:rgb(0,0,255) " /> 
<rect x = "660" y = "294" width = "1" height = "1" style = " fill:rgb(0,0,255) " /> 
<rect x = "660" y = "505" width = "1" height = "1" style = " fill:rgb(0,0,255) " /> 
<rect x = "662" y = "293" width = "1" height = "1" style = " fill:rgb(0,0,255) " /> 
<rect x = "662" y = "506" width = "1" height = "1" style = " fill:rgb(0,0,255) " /> 
<rect x = "663" y = "506" width = "1" height = "1" style = " fill:rgb(0,0,255) " /> 
<rect x = "664" y = "293" width = "1" height = "1" style = " fill:rgb(0,0,255) " /> 
<rect x = "664" y = "507" width = "1" height = "1" style = " fill:rgb(0,0,255) " /> 
<rect x = "665" y = "292" width = "1" height = "1" style = " fill:rgb(0,0,255) " /> 
<rect x = "665" y = "507" width = "1" height = "1" style = " fill:rgb(0,0,255) " /> 
<rect x = "667" y = "292" width = "1" height = "1" style = " fill:rgb(0,0,255) " /> 
<rect x = "667" y = "507" width = "1" height = "1" style = " fill:rgb(0,0,255) " /> 
<rect x = "668" y = "292" width = "1" height = "1" style = " fill:rgb(0,0,255) " /> 
<rect x = "668" y = "507" width = "1" height = "1" style = " fill:rgb(0,0,255) " /> 
<rect x = "669" y = "508" width = "1" height = "1" style = " fill:rgb(0,0,255) " /> 
<rect x = "670" y = "291" width = "1" height = "1" style = " fill:rgb(0,0,255) " /> 
<rect x = "670" y = "508" width = "1" height = "1" style = " fill:rgb(0,0,255) " /> 
<rect x = "671" y = "291" width = "1" height = "1" style = " fill:rgb(0,0,255) " /> 
<rect x = "671" y = "508" width = "1" height = "1" style = " fill:rgb(0,0,255) " /> 
<rect x = "672" y = "291" width = "1" height = "1" style = " fill:rgb(0,0,255) " /> 
<rect x = "672" y = "508" width = "1" height = "1" style = " fill:rgb(0,0,255) " /> 
<rect x = "673" y = "508" width = "1" height = "1" style = " fill:rgb(0,0,255) " /> 
<rect x = "674" y = "508" width = "1" height = "1" style = " fill:rgb(0,0,255) " /> 
<rect x = "675" y = "508" width = "1" height = "1" style = " fill:rgb(0,0,255) " /> 
<rect x = "676" y = "508" width = "1" height = "1" style = " fill:rgb(0,0,255) " /> 
<rect x = "677" y = "508" width = "1" height = "1" style = " fill:rgb(0,0,255) " /> 
<rect x = "678" y = "290" width = "1" height = "1" style = " fill:rgb(0,0,255) " /> 
<rect x = "679" y = "508" width = "1" height = "1" style = " fill:rgb(0,0,255) " /> 
<rect x = "680" y = "290" width = "1" height = "1" style = " fill:rgb(0,0,255) " /> 
<rect x = "680" y = "508" width = "1" height = "1" style = " fill:rgb(0,0,255) " /> 
<rect x = "681" y = "290" width = "1" height = "1" style = " fill:rgb(0,0,255) " /> 
<rect x = "682" y = "290" width = "1" height = "1" style = " fill:rgb(0,0,255) " /> 
<rect x = "682" y = "508" width = "1" height = "1" style = " fill:rgb(0,0,255) " /> 
<rect x = "683" y = "290" width = "1" height = "1" style = " fill:rgb(0,0,255) " /> 
<rect x = "683" y = "508" width = "1" height = "1" style = " fill:rgb(0,0,255) " /> 
<rect x = "684" y = "290" width = "1" height = "1" style = " fill:rgb(0,0,255) " /> 
<rect x = "684" y = "508" width = "1" height = "1" style = " fill:rgb(0,0,255) " /> 
<rect x = "685" y = "290" width = "1" height = "1" style = " fill:rgb(0,0,255) " /> 
<rect x = "686" y = "290" width = "1" height = "1" style = " fill:rgb(0,0,255) " /> 
<rect x = "686" y = "507" width = "1" height = "1" style = " fill:rgb(0,0,255) " /> 
<rect x = "687" y = "290" width = "1" height = "1" style = " fill:rgb(0,0,255) " /> 
<rect x = "687" y = "507" width = "1" height = "1" style = " fill:rgb(0,0,255) " /> 
<rect x = "688" y = "507" width = "1" height = "1" style = " fill:rgb(0,0,255) " /> 
<rect x = "690" y = "507" width = "1" height = "1" style = " fill:rgb(0,0,255) " /> 
<rect x = "692" y = "507" width = "1" height = "1" style = " fill:rgb(0,0,255) " /> 
<rect x = "693" y = "506" width = "1" height = "1" style = " fill:rgb(0,0,255) " /> 
<rect x = "695" y = "506" width = "1" height = "1" style = " fill:rgb(0,0,255) " /> 
<rect x = "697" y = "505" width = "1" height = "1" style = " fill:rgb(0,0,255) " /> 
<rect x = "698" y = "505" width = "1" height = "1" style = " fill:rgb(0,0,255) " /> 
<rect x = "699" y = "505" width = "1" height = "1" style = " fill:rgb(0,0,255) " /> 
<rect x = "701" y = "504" width = "1" height = "1" style = " fill:rgb(0,0,255) " /> 
<rect x = "702" y = "503" width = "1" height = "1" style = " fill:rgb(0,0,255) " /> 
<rect x = "704" y = "503" width = "1" height = "1" style = " fill:rgb(0,0,255) " /> 
<rect x = "705" y = "503" width = "1" height = "1" style = " fill:rgb(0,0,255) " /> 
<rect x = "707" y = "503" width = "1" height = "1" style = " fill:rgb(0,0,255) " /> 
<rect x = "708" y = "501" width = "1" height = "1" style = " fill:rgb(0,0,255) " /> 
<rect x = "709" y = "501" width = "1" height = "1" style = " fill:rgb(0,0,255) " /> 
<rect x = "711" y = "501" width = "1" height = "1" style = " fill:rgb(0,0,255) " /> 
<rect x = "712" y = "501" width = "1" height = "1" style = " fill:rgb(0,0,255) " /> 
<rect x = "713" y = "500" width = "1" height = "1" style = " fill:rgb(0,0,255) " /> 
<rect x = "715" y = "499" width = "1" height = "1" style = " fill:rgb(0,0,255) " /> 
<rect x = "716" y = "499" width = "1" height = "1" style = " fill:rgb(0,0,255) " /> 
<rect x = "717" y = "499" width = "1" height = "1" style = " fill:rgb(0,0,255) " /> 
<rect x = "719" y = "497" width = "1" height = "1" style = " fill:rgb(0,0,255) " /> 
<rect x = "720" y = "497" width = "1" height = "1" style = " fill:rgb(0,0,255) " /> 
<rect x = "721" y = "496" width = "1" height = "1" style = " fill:rgb(0,0,255) " /> 
<rect x = "723" y = "496" width = "1" height = "1" style = " fill:rgb(0,0,255) " /> 
<rect x = "724" y = "496" width = "1" height = "1" style = " fill:rgb(0,0,255) " /> 
<rect x = "725" y = "494" width = "1" height = "1" style = " fill:rgb(0,0,255) " /> 
<rect x = "726" y = "331" width = "1" height = "1" style = " fill:rgb(0,0,255) " /> 
<rect x = "726" y = "494" width = "1" height = "1" style = " fill:rgb(0,0,255) " /> 
<rect x = "727" y = "331" width = "1" height = "1" style = " fill:rgb(0,0,255) " /> 
<rect x = "727" y = "494" width = "1" height = "1" style = " fill:rgb(0,0,255) " /> 
<rect x = "728" y = "330" width = "1" height = "1" style = " fill:rgb(0,0,255) " /> 
<rect x = "728" y = "331" width = "1" height = "1" style = " fill:rgb(0,0,255) " /> 
<rect x = "728" y = "493" width = "1" height = "1" style = " fill:rgb(0,0,255) " /> 
<rect x = "729" y = "330" width = "1" height = "1" style = " fill:rgb(0,0,255) " /> 
<rect x = "729" y = "492" width = "1" height = "1" style = " fill:rgb(0,0,255) " /> 
<rect x = "730" y = "330" width = "1" height = "1" style = " fill:rgb(0,0,255) " /> 
<rect x = "731" y = "330" width = "1" height = "1" style = " fill:rgb(0,0,255) " /> 
<rect x = "731" y = "491" width = "1" height = "1" style = " fill:rgb(0,0,255) " /> 
<rect x = "732" y = "330" width = "1" height = "1" style = " fill:rgb(0,0,255) " /> 
<rect x = "732" y = "490" width = "1" height = "1" style = " fill:rgb(0,0,255) " /> 
<rect x = "733" y = "330" width = "1" height = "1" style = " fill:rgb(0,0,255) " /> 
<rect x = "733" y = "490" width = "1" height = "1" style = " fill:rgb(0,0,255) " /> 
<rect x = "734" y = "330" width = "1" height = "1" style = " fill:rgb(0,0,255) " /> 
<rect x = "735" y = "330" width = "1" height = "1" style = " fill:rgb(0,0,255) " /> 
<rect x = "735" y = "489" width = "1" height = "1" style = " fill:rgb(0,0,255) " /> 
<rect x = "736" y = "330" width = "1" height = "1" style = " fill:rgb(0,0,255) " /> 
<rect x = "736" y = "488" width = "1" height = "1" style = " fill:rgb(0,0,255) " /> 
<rect x = "737" y = "330" width = "1" height = "1" style = " fill:rgb(0,0,255) " /> 
<rect x = "738" y = "330" width = "1" height = "1" style = " fill:rgb(0,0,255) " /> 
<rect x = "738" y = "331" width = "1" height = "1" style = " fill:rgb(0,0,255) " /> 
<rect x = "738" y = "488" width = "1" height = "1" style = " fill:rgb(0,0,255) " /> 
<rect x = "739" y = "331" width = "1" height = "1" style = " fill:rgb(0,0,255) " /> 
<rect x = "739" y = "487" width = "1" height = "1" style = " fill:rgb(0,0,255) " /> 
<rect x = "740" y = "331" width = "1" height = "1" style = " fill:rgb(0,0,255) " /> 
<rect x = "740" y = "486" width = "1" height = "1" style = " fill:rgb(0,0,255) " /> 
<rect x = "741" y = "331" width = "1" height = "1" style = " fill:rgb(0,0,255) " /> 
<rect x = "741" y = "332" width = "1" height = "1" style = " fill:rgb(0,0,255) " /> 
<rect x = "741" y = "485" width = "1" height = "1" style = " fill:rgb(0,0,255) " /> 
<rect x = "742" y = "332" width = "1" height = "1" style = " fill:rgb(0,0,255) " /> 
<rect x = "742" y = "333" width = "1" height = "1" style = " fill:rgb(0,0,255) " /> 
<rect x = "742" y = "485" width = "1" height = "1" style = " fill:rgb(0,0,255) " /> 
<rect x = "743" y = "333" width = "1" height = "1" style = " fill:rgb(0,0,255) " /> 
<rect x = "743" y = "483" width = "1" height = "1" style = " fill:rgb(0,0,255) " /> 
<rect x = "743" y = "484" width = "1" height = "1" style = " fill:rgb(0,0,255) " /> 
<rect x = "744" y = "333" width = "1" height = "1" style = " fill:rgb(0,0,255) " /> 
<rect x = "744" y = "482" width = "1" height = "1" style = " fill:rgb(0,0,255) " /> 
<rect x = "745" y = "334" width = "1" height = "1" style = " fill:rgb(0,0,255) " /> 
<rect x = "745" y = "335" width = "1" height = "1" style = " fill:rgb(0,0,255) " /> 
<rect x = "745" y = "480" width = "1" height = "1" style = " fill:rgb(0,0,255) " /> 
<rect x = "745" y = "481" width = "1" height = "1" style = " fill:rgb(0,0,255) " /> 
<rect x = "746" y = "335" width = "1" height = "1" style = " fill:rgb(0,0,255) " /> 
<rect x = "746" y = "479" width = "1" height = "1" style = " fill:rgb(0,0,255) " /> 
<rect x = "747" y = "477" width = "1" height = "1" style = " fill:rgb(0,0,255) " /> 
<rect x = "747" y = "479" width = "1" height = "1" style = " fill:rgb(0,0,255) " /> 
<rect x = "748" y = "336" width = "1" height = "1" style = " fill:rgb(0,0,255) " /> 
<rect x = "748" y = "337" width = "1" height = "1" style = " fill:rgb(0,0,255) " /> 
<rect x = "748" y = "476" width = "1" height = "1" style = " fill:rgb(0,0,255) " /> 
<rect x = "749" y = "338" width = "1" height = "1" style = " fill:rgb(0,0,255) " /> 
<rect x = "749" y = "474" width = "1" height = "1" style = " fill:rgb(0,0,255) " /> 
<rect x = "749" y = "475" width = "1" height = "1" style = " fill:rgb(0,0,255) " /> 
<rect x = "750" y = "338" width = "1" height = "1" style = " fill:rgb(0,0,255) " /> 
<rect x = "750" y = "473" width = "1" height = "1" style = " fill:rgb(0,0,255) " /> 
<rect x = "751" y = "339" width = "1" height = "1" style = " fill:rgb(0,0,255) " /> 
<rect x = "751" y = "472" width = "1" height = "1" style = " fill:rgb(0,0,255) " /> 
<rect x = "752" y = "340" width = "1" height = "1" style = " fill:rgb(0,0,255) " /> 
<rect x = "752" y = "468" width = "1" height = "1" style = " fill:rgb(0,0,255) " /> 
<rect x = "752" y = "470" width = "1" height = "1" style = " fill:rgb(0,0,255) " /> 
<rect x = "753" y = "341" width = "1" height = "1" style = " fill:rgb(0,0,255) " /> 
<rect x = "754" y = "341" width = "1" height = "1" style = " fill:rgb(0,0,255) " /> 
<rect x = "754" y = "465" width = "1" height = "1" style = " fill:rgb(0,0,255) " /> 
<rect x = "754" y = "466" width = "1" height = "1" style = " fill:rgb(0,0,255) " /> 
<rect x = "755" y = "343" width = "1" height = "1" style = " fill:rgb(0,0,255) " /> 
<rect x = "755" y = "464" width = "1" height = "1" style = " fill:rgb(0,0,255) " /> 
<rect x = "756" y = "344" width = "1" height = "1" style = " fill:rgb(0,0,255) " /> 
<rect x = "756" y = "461" width = "1" height = "1" style = " fill:rgb(0,0,255) " /> 
<rect x = "756" y = "462" width = "1" height = "1" style = " fill:rgb(0,0,255) " /> 
<rect x = "757" y = "345" width = "1" height = "1" style = " fill:rgb(0,0,255) " /> 
<rect x = "757" y = "460" width = "1" height = "1" style = " fill:rgb(0,0,255) " /> 
<rect x = "758" y = "346" width = "1" height = "1" style = " fill:rgb(0,0,255) " /> 
<rect x = "758" y = "457" width = "1" height = "1" style = " fill:rgb(0,0,255) " /> 
<rect x = "758" y = "458" width = "1" height = "1" style = " fill:rgb(0,0,255) " /> 
<rect x = "759" y = "347" width = "1" height = "1" style = " fill:rgb(0,0,255) " /> 
<rect x = "759" y = "455" width = "1" height = "1" style = " fill:rgb(0,0,255) " /> 
<rect x = "760" y = "348" width = "1" height = "1" style = " fill:rgb(0,0,255) " /> 
<rect x = "760" y = "452" width = "1" height = "1" style = " fill:rgb(0,0,255) " /> 
<rect x = "760" y = "453" width = "1" height = "1" style = " fill:rgb(0,0,255) " /> 
<rect x = "761" y = "349" width = "1" height = "1" style = " fill:rgb(0,0,255) " /> 
<rect x = "761" y = "448" width = "1" height = "1" style = " fill:rgb(0,0,255) " /> 
<rect x = "761" y = "449" width = "1" height = "1" style = " fill:rgb(0,0,255) " /> 
<rect x = "762" y = "351" width = "1" height = "1" style = " fill:rgb(0,0,255) " /> 
<rect x = "762" y = "446" width = "1" height = "1" style = " fill:rgb(0,0,255) " /> 
<rect x = "763" y = "352" width = "1" height = "1" style = " fill:rgb(0,0,255) " /> 
<rect x = "763" y = "353" width = "1" height = "1" style = " fill:rgb(0,0,255) " /> 
<rect x = "763" y = "444" width = "1" height = "1" style = " fill:rgb(0,0,255) " /> 
<rect x = "764" y = "354" width = "1" height = "1" style = " fill:rgb(0,0,255) " /> 
<rect x = "764" y = "440" width = "1" height = "1" style = " fill:rgb(0,0,255) " /> 
<rect x = "764" y = "442" width = "1" height = "1" style = " fill:rgb(0,0,255) " /> 
<rect x = "765" y = "354" width = "1" height = "1" style = " fill:rgb(0,0,255) " /> 
<rect x = "765" y = "356" width = "1" height = "1" style = " fill:rgb(0,0,255) " /> 
<rect x = "765" y = "357" width = "1" height = "1" style = " fill:rgb(0,0,255) " /> 
<rect x = "765" y = "439" width = "1" height = "1" style = " fill:rgb(0,0,255) " /> 
<rect x = "766" y = "435" width = "1" height = "1" style = " fill:rgb(0,0,255) " /> 
<rect x = "766" y = "437" width = "1" height = "1" style = " fill:rgb(0,0,255) " /> 
<rect x = "767" y = "358" width = "1" height = "1" style = " fill:rgb(0,0,255) " /> 
<rect x = "767" y = "360" width = "1" height = "1" style = " fill:rgb(0,0,255) " /> 
<rect x = "767" y = "361" width = "1" height = "1" style = " fill:rgb(0,0,255) " /> 
<rect x = "767" y = "431" width = "1" height = "1" style = " fill:rgb(0,0,255) " /> 
<rect x = "767" y = "433" width = "1" height = "1" style = " fill:rgb(0,0,255) " /> 
<rect x = "768" y = "362" width = "1" height = "1" style = " fill:rgb(0,0,255) " /> 
<rect x = "768" y = "364" width = "1" height = "1" style = " fill:rgb(0,0,255) " /> 
<rect x = "768" y = "426" width = "1" height = "1" style = " fill:rgb(0,0,255) " /> 
<rect x = "768" y = "428" width = "1" height = "1" style = " fill:rgb(0,0,255) " /> 
<rect x = "768" y = "430" width = "1" height = "1" style = " fill:rgb(0,0,255) " /> 
<rect x = "769" y = "365" width = "1" height = "1" style = " fill:rgb(0,0,255) " /> 
<rect x = "769" y = "367" width = "1" height = "1" style = " fill:rgb(0,0,255) " /> 
<rect x = "769" y = "368" width = "1" height = "1" style = " fill:rgb(0,0,255) " /> 
<rect x = "769" y = "422" width = "1" height = "1" style = " fill:rgb(0,0,255) " /> 
<rect x = "769" y = "423" width = "1" height = "1" style = " fill:rgb(0,0,255) " /> 
<rect x = "770" y = "370" width = "1" height = "1" style = " fill:rgb(0,0,255) " /> 
<rect x = "770" y = "420" width = "1" height = "1" style = " fill:rgb(0,0,255) " /> 
<rect x = "771" y = "371" width = "1" height = "1" style = " fill:rgb(0,0,255) " /> 
<rect x = "771" y = "372" width = "1" height = "1" style = " fill:rgb(0,0,255) " /> 
<rect x = "771" y = "411" width = "1" height = "1" style = " fill:rgb(0,0,255) " /> 
<rect x = "771" y = "413" width = "1" height = "1" style = " fill:rgb(0,0,255) " /> 
<rect x = "771" y = "414" width = "1" height = "1" style = " fill:rgb(0,0,255) " /> 
<rect x = "771" y = "416" width = "1" height = "1" style = " fill:rgb(0,0,255) " /> 
<rect x = "771" y = "418" width = "1" height = "1" style = " fill:rgb(0,0,255) " /> 
<rect x = "772" y = "375" width = "1" height = "1" style = " fill:rgb(0,0,255) " /> 
<rect x = "772" y = "376" width = "1" height = "1" style = " fill:rgb(0,0,255) " /> 
<rect x = "772" y = "377" width = "1" height = "1" style = " fill:rgb(0,0,255) " /> 
<rect x = "772" y = "379" width = "1" height = "1" style = " fill:rgb(0,0,255) " /> 
<rect x = "772" y = "381" width = "1" height = "1" style = " fill:rgb(0,0,255) " /> 
<rect x = "772" y = "382" width = "1" height = "1" style = " fill:rgb(0,0,255) " /> 
<rect x = "772" y = "384" width = "1" height = "1" style = " fill:rgb(0,0,255) " /> 
<rect x = "772" y = "386" width = "1" height = "1" style = " fill:rgb(0,0,255) " /> 
<rect x = "772" y = "388" width = "1" height = "1" style = " fill:rgb(0,0,255) " /> 
<rect x = "772" y = "389" width = "1" height = "1" style = " fill:rgb(0,0,255) " /> 
<rect x = "772" y = "390" width = "1" height = "1" style = " fill:rgb(0,0,255) " /> 
<rect x = "772" y = "392" width = "1" height = "1" style = " fill:rgb(0,0,255) " /> 
<rect x = "772" y = "394" width = "1" height = "1" style = " fill:rgb(0,0,255) " /> 
<rect x = "772" y = "396" width = "1" height = "1" style = " fill:rgb(0,0,255) " /> 
<rect x = "772" y = "398" width = "1" height = "1" style = " fill:rgb(0,0,255) " /> 
<rect x = "772" y = "400" width = "1" height = "1" style = " fill:rgb(0,0,255) " /> 
<rect x = "772" y = "401" width = "1" height = "1" style = " fill:rgb(0,0,255) " /> 
<rect x = "772" y = "403" width = "1" height = "1" style = " fill:rgb(0,0,255) " /> 
<rect x = "772" y = "405" width = "1" height = "1" style = " fill:rgb(0,0,255) " /> 
<rect x = "772" y = "406" width = "1" height = "1" style = " fill:rgb(0,0,255) " /> 
<rect x = "772" y = "407" width = "1" height = "1" style = " fill:rgb(0,0,255) " /> 
<rect x = "772" y = "409" width = "1" height = "1" style = " fill:rgb(0,0,255) " /> 
</svg>